<svg width="1024" height="1024" viewBox="0 0 256 256" xmlns="http://www.w3.org/2000/svg">
  <defs>
    <linearGradient id="bg" x1="0" y1="0" x2="256" y2="256" gradientUnits="userSpaceOnUse">
      <stop offset="0%" stop-color="#141414"/>
      <stop offset="100%" stop-color="#0a0a0a"/>
    </linearGradient>
  </defs>
  <rect width="256" height="256" rx="56" fill="url(#bg)"/>
  <!-- 5 stacked chrome panels -->
  <rect x="52" y="152" width="152" height="56" rx="10" fill="#333" stroke="#555" stroke-width="1.5"/>
  <rect x="56" y="120" width="144" height="56" rx="10" fill="#444" stroke="#666" stroke-width="1.5"/>
  <rect x="60" y="88" width="136" height="56" rx="10" fill="#666" stroke="#888" stroke-width="1.5"/>
  <rect x="64" y="56" width="128" height="56" rx="10" fill="#999" stroke="#bbb" stroke-width="1.5"/>
  <rect x="68" y="40" width="120" height="44" rx="10" fill="#ccc" stroke="#e5e5e5" stroke-width="1.5"/>
  <!-- Top card gleam -->
  <rect x="74" y="44" width="50" height="6" rx="3" fill="white" opacity="0.2"/>
  <!-- AI color accents on left edge -->
  <rect x="52" y="156" width="4" height="48" rx="2" fill="#20808d" opacity="0.6"/>
  <rect x="56" y="124" width="4" height="48" rx="2" fill="#888" opacity="0.5"/>
  <rect x="60" y="92" width="4" height="48" rx="2" fill="#4285f4" opacity="0.5"/>
  <rect x="64" y="60" width="4" height="48" rx="2" fill="#d97706" opacity="0.5"/>
  <rect x="68" y="44" width="4" height="36" rx="2" fill="#10a37f" opacity="0.5"/>
</svg>
