<svg width="1024" height="1024" viewBox="0 0 680 680" xmlns="http://www.w3.org/2000/svg">
<rect width="680" height="680" rx="130" fill="#080810"/>

<circle cx="52"  cy="58"  r="4.5" fill="#ffffff" opacity="0.95"/>
<circle cx="95"  cy="38"  r="3.0" fill="#ffffff" opacity="0.80"/>
<circle cx="138" cy="72"  r="5.0" fill="#ffffff" opacity="1.00"/>
<circle cx="72"  cy="112" r="3.5" fill="#ffffff" opacity="0.85"/>
<circle cx="168" cy="48"  r="3.0" fill="#ffffff" opacity="0.75"/>
<circle cx="42"  cy="155" r="4.0" fill="#ffffff" opacity="0.90"/>
<circle cx="115" cy="142" r="2.5" fill="#ffffff" opacity="0.70"/>
<circle cx="628" cy="52"  r="4.5" fill="#ffffff" opacity="0.95"/>
<circle cx="585" cy="38"  r="3.0" fill="#ffffff" opacity="0.80"/>
<circle cx="542" cy="68"  r="5.0" fill="#ffffff" opacity="1.00"/>
<circle cx="608" cy="105" r="3.5" fill="#ffffff" opacity="0.85"/>
<circle cx="512" cy="48"  r="3.0" fill="#ffffff" opacity="0.75"/>
<circle cx="638" cy="148" r="4.0" fill="#ffffff" opacity="0.90"/>
<circle cx="565" cy="135" r="2.5" fill="#ffffff" opacity="0.70"/>
<circle cx="52"  cy="628" r="4.5" fill="#ffffff" opacity="0.95"/>
<circle cx="95"  cy="645" r="3.0" fill="#ffffff" opacity="0.80"/>
<circle cx="138" cy="608" r="5.0" fill="#ffffff" opacity="1.00"/>
<circle cx="72"  cy="568" r="3.5" fill="#ffffff" opacity="0.85"/>
<circle cx="168" cy="632" r="3.0" fill="#ffffff" opacity="0.75"/>
<circle cx="42"  cy="525" r="4.0" fill="#ffffff" opacity="0.90"/>
<circle cx="628" cy="628" r="4.5" fill="#ffffff" opacity="0.95"/>
<circle cx="585" cy="645" r="3.0" fill="#ffffff" opacity="0.80"/>
<circle cx="542" cy="612" r="5.0" fill="#ffffff" opacity="1.00"/>
<circle cx="608" cy="572" r="3.5" fill="#ffffff" opacity="0.85"/>
<circle cx="512" cy="638" r="3.0" fill="#ffffff" opacity="0.75"/>
<circle cx="638" cy="530" r="4.0" fill="#ffffff" opacity="0.90"/>
<circle cx="45"  cy="340" r="4.0" fill="#ffffff" opacity="0.88"/>
<circle cx="635" cy="340" r="4.0" fill="#ffffff" opacity="0.88"/>
<circle cx="340" cy="42"  r="4.0" fill="#ffffff" opacity="0.88"/>
<circle cx="340" cy="638" r="4.0" fill="#ffffff" opacity="0.88"/>

<circle cx="340" cy="340" r="264" fill="#e8e8e8"/>
<path d="M340,76 A264,264 0 0,1 604,340 A264,264 0 0,1 340,604 A264,264 0 0,0 340,76Z" fill="#909090"/>
<path d="M340,340 L604,340 A264,264 0 0,1 340,604 Z" fill="#404040"/>
<path d="M340,340 L530,530 A264,264 0 0,1 260,598 Z" fill="#1a1a1a"/>

<ellipse cx="340" cy="340" rx="264" ry="80" fill="none" stroke="#080810" stroke-width="8"/>
<ellipse cx="340" cy="220" rx="220" ry="66" fill="none" stroke="#080810" stroke-width="8"/>
<ellipse cx="340" cy="460" rx="220" ry="66" fill="none" stroke="#080810" stroke-width="8"/>
<line x1="340" y1="76" x2="340" y2="604" stroke="#080810" stroke-width="8"/>
<line x1="76" y1="340" x2="604" y2="340" stroke="#080810" stroke-width="8"/>

<ellipse cx="248" cy="210" rx="80" ry="52" fill="#ffffff" opacity="0.18" transform="rotate(-30 248 210)"/>
<circle cx="340" cy="340" r="264" fill="none" stroke="#ffffff" stroke-width="10" opacity="0.9"/>
</svg>
