<svg width="1024" height="1024" viewBox="0 0 680 680" role="img" xmlns="http://www.w3.org/2000/svg">
<defs>
  <clipPath id="gc"><circle cx="0" cy="0" r="240"/></clipPath>
</defs>

<rect width="680" height="680" rx="144" fill="#070707"/>

<circle cx="55"  cy="68"  r="1.2" fill="#fff" opacity="0.82"/>
<circle cx="98"  cy="42"  r="0.8" fill="#fff" opacity="0.60"/>
<circle cx="142" cy="76"  r="1.5" fill="#fff" opacity="0.90"/>
<circle cx="75"  cy="118" r="0.8" fill="#fff" opacity="0.48"/>
<circle cx="178" cy="52"  r="1.0" fill="#fff" opacity="0.65"/>
<circle cx="48"  cy="155" r="1.3" fill="#fff" opacity="0.78"/>
<circle cx="125" cy="148" r="0.7" fill="#fff" opacity="0.40"/>
<circle cx="162" cy="118" r="1.1" fill="#fff" opacity="0.70"/>
<circle cx="88"  cy="82"  r="0.8" fill="#fff" opacity="0.55"/>
<circle cx="38"  cy="210" r="1.0" fill="#fff" opacity="0.72"/>
<circle cx="158" cy="142" r="0.9" fill="#fff" opacity="0.45"/>
<circle cx="112" cy="38"  r="1.4" fill="#fff" opacity="0.85"/>
<circle cx="525" cy="55"  r="1.2" fill="#fff" opacity="0.80"/>
<circle cx="578" cy="42"  r="0.8" fill="#fff" opacity="0.58"/>
<circle cx="610" cy="88"  r="1.5" fill="#fff" opacity="0.92"/>
<circle cx="558" cy="125" r="0.8" fill="#fff" opacity="0.46"/>
<circle cx="492" cy="62"  r="1.0" fill="#fff" opacity="0.68"/>
<circle cx="635" cy="142" r="1.3" fill="#fff" opacity="0.76"/>
<circle cx="542" cy="175" r="0.7" fill="#fff" opacity="0.38"/>
<circle cx="598" cy="152" r="1.1" fill="#fff" opacity="0.65"/>
<circle cx="472" cy="125" r="0.9" fill="#fff" opacity="0.52"/>
<circle cx="622" cy="68"  r="1.4" fill="#fff" opacity="0.88"/>
<circle cx="510" cy="188" r="0.8" fill="#fff" opacity="0.44"/>
<circle cx="565" cy="48"  r="1.0" fill="#fff" opacity="0.70"/>
<circle cx="62"  cy="520" r="1.2" fill="#fff" opacity="0.75"/>
<circle cx="108" cy="565" r="0.9" fill="#fff" opacity="0.82"/>
<circle cx="148" cy="502" r="1.5" fill="#fff" opacity="0.90"/>
<circle cx="82"  cy="598" r="0.8" fill="#fff" opacity="0.48"/>
<circle cx="178" cy="548" r="1.0" fill="#fff" opacity="0.62"/>
<circle cx="52"  cy="618" r="1.3" fill="#fff" opacity="0.80"/>
<circle cx="128" cy="622" r="0.7" fill="#fff" opacity="0.40"/>
<circle cx="162" cy="582" r="1.1" fill="#fff" opacity="0.68"/>
<circle cx="42"  cy="468" r="0.9" fill="#fff" opacity="0.55"/>
<circle cx="195" cy="612" r="1.4" fill="#fff" opacity="0.78"/>
<circle cx="115" cy="535" r="0.8" fill="#fff" opacity="0.44"/>
<circle cx="528" cy="495" r="1.2" fill="#fff" opacity="0.78"/>
<circle cx="572" cy="558" r="0.9" fill="#fff" opacity="0.62"/>
<circle cx="608" cy="508" r="1.5" fill="#fff" opacity="0.90"/>
<circle cx="555" cy="618" r="0.8" fill="#fff" opacity="0.48"/>
<circle cx="488" cy="575" r="1.0" fill="#fff" opacity="0.65"/>
<circle cx="628" cy="552" r="1.3" fill="#fff" opacity="0.80"/>
<circle cx="542" cy="635" r="0.7" fill="#fff" opacity="0.38"/>
<circle cx="595" cy="598" r="1.1" fill="#fff" opacity="0.62"/>
<circle cx="618" cy="488" r="1.4" fill="#fff" opacity="0.88"/>
<circle cx="248" cy="58"  r="1.0" fill="#fff" opacity="0.65"/>
<circle cx="308" cy="45"  r="1.3" fill="#fff" opacity="0.82"/>
<circle cx="398" cy="68"  r="0.9" fill="#fff" opacity="0.58"/>
<circle cx="455" cy="52"  r="1.1" fill="#fff" opacity="0.70"/>
<circle cx="258" cy="608" r="1.0" fill="#fff" opacity="0.62"/>
<circle cx="322" cy="630" r="1.3" fill="#fff" opacity="0.80"/>
<circle cx="405" cy="592" r="0.9" fill="#fff" opacity="0.58"/>
<circle cx="460" cy="618" r="1.1" fill="#fff" opacity="0.65"/>
<circle cx="58"  cy="252" r="0.9" fill="#fff" opacity="0.68"/>
<circle cx="45"  cy="340" r="1.2" fill="#fff" opacity="0.80"/>
<circle cx="62"  cy="435" r="0.8" fill="#fff" opacity="0.55"/>
<circle cx="622" cy="248" r="0.9" fill="#fff" opacity="0.68"/>
<circle cx="635" cy="342" r="1.2" fill="#fff" opacity="0.80"/>
<circle cx="612" cy="440" r="0.8" fill="#fff" opacity="0.55"/>

<g transform="translate(340,340)">
  <circle r="240" fill="#0d0d0d"/>
  <g clip-path="url(#gc)">
    <ellipse cx="0" cy="-162" rx="173" ry="48" fill="none" stroke="#2e2e2e" stroke-width="1.1"/>
    <ellipse cx="0" cy="-81"  rx="229" ry="66" fill="none" stroke="#2e2e2e" stroke-width="1.1"/>
    <ellipse cx="0" cy="0"    rx="240" ry="72" fill="none" stroke="#303030" stroke-width="1.1"/>
    <ellipse cx="0" cy="81"   rx="229" ry="66" fill="none" stroke="#2e2e2e" stroke-width="1.1"/>
    <ellipse cx="0" cy="162"  rx="173" ry="48" fill="none" stroke="#2e2e2e" stroke-width="1.1"/>
    <line x1="0" y1="-240" x2="0" y2="240" stroke="#2c2c2c" stroke-width="1.0"/>
    <ellipse cx="0" cy="0" rx="66"  ry="240" fill="none" stroke="#272727" stroke-width="1.0"/>
    <ellipse cx="0" cy="0" rx="155" ry="240" fill="none" stroke="#232323" stroke-width="0.9"/>
    <text font-family="monospace" font-size="16" fill="#606060" text-anchor="middle">
      <tspan x="0" y="-60">import Tools from 'ai'</tspan>
      <tspan x="0" dy="24">const models = 5</tspan>
      <tspan x="0" dy="24">orchestrate(models)</tspan>
      <tspan x="0" dy="24">selfHeal(err)</tspan>
      <tspan x="0" dy="24">deploy(live)</tspan>
      <tspan x="0" dy="24">✓ compiled</tspan>
    </text>
  </g>
  <circle r="240" fill="none" stroke="#c0c0c0" stroke-width="2" opacity="0.72"/>
</g>
</svg>
